<?xml version="1.0" encoding="UTF-8" standalone="no"?><!-- Generator: Gravit.io --><svg xmlns="http://www.w3.org/2000/svg" xmlns:xlink="http://www.w3.org/1999/xlink" style="isolation:isolate" viewBox="619.329 221.168 475.421 479.85" width="475.421pt" height="479.85pt"><defs><clipPath id="_clipPath_pvwsQttPN9lcE3z9mWP6lKXXXnzHlmOJ"><rect x="619.329" y="221.168" width="475.421" height="479.85"/></clipPath></defs><g clip-path="url(#_clipPath_pvwsQttPN9lcE3z9mWP6lKXXXnzHlmOJ)"><g><g><g><path d=" M 1017.902 500.645 L 998.662 664.951 C 998.025 670.388 993.762 674.46 988.719 674.45 L 987.547 674.448 L 987.503 696.181 L 957.503 696.12 L 961.995 686.41 C 965.049 679.806 970.953 675.406 977.609 674.584 L 977.609 674.428 L 977.547 674.427 L 967.902 500.543 L 1017.902 500.645 Z " fill="rgb(127,86,57)"/><path d=" M 962.845 686.411 C 966.248 679.055 973.182 674.418 980.758 674.434 L 988.397 674.45 L 988.353 696.183 L 958.353 696.121 L 962.845 686.411 Z " fill="rgb(68,49,38)"/></g><g><path d=" M 986.527 504.374 C 983.299 509.177 980.432 516.297 978.368 527.388 L 950.548 667.031 C 949.925 672.941 945.674 677.379 940.631 677.382 L 939.459 677.382 L 939.473 701 L 909.473 701.018 L 913.939 690.454 C 916.961 683.306 922.807 678.519 929.417 677.571 L 929.417 676.601 L 925.542 604.223 L 920.199 504.414 L 986.527 504.374 L 986.527 504.374 Z " fill="rgb(170,115,77)"/><path d=" M 909.473 700.886 L 939.473 700.867 L 939.459 677.6 L 931.82 677.605 C 924.245 677.61 917.322 682.593 913.939 690.478 L 909.473 700.886 Z " fill="rgb(68,49,38)"/></g><g><path d=" M 809.725 496.95 L 788.77 662.583 C 788.076 668.063 783.772 672.13 778.729 672.067 L 777.557 672.053 L 777.286 693.987 L 747.288 693.616 L 751.881 683.862 C 754.995 677.249 760.916 672.864 767.556 672.083 L 767.556 672.083 L 767.558 671.929 L 759.729 496.332 L 809.725 496.95 Z " fill="rgb(127,86,57)"/><path d=" M 751.876 684.233 C 755.353 677.124 762.333 672.693 769.908 672.787 L 777.547 672.882 L 777.286 693.987 L 747.288 693.616 L 751.876 684.233 Z " fill="rgb(68,49,38)"/></g><g><path d=" M 715.328 503.571 C 716.378 503.684 717.429 503.793 718.487 503.869 L 736.256 675.623 L 736.256 675.804 C 729.627 676.756 723.76 681.654 720.728 688.981 L 716.256 699.788 L 746.256 699.788 L 746.256 675.623 L 747.428 675.623 C 752.471 675.623 756.725 671.085 757.351 665.039 L 774.203 502.15 L 775.471 502.103 L 715.328 503.571 L 715.328 503.571 Z " fill="rgb(170,115,77)"/><path d=" M 715.329 699.32 L 745.329 699.32 L 745.329 675.155 L 737.689 675.155 C 730.114 675.155 723.189 680.326 719.801 688.513 L 715.329 699.32 Z " fill="rgb(68,49,38)"/></g><g><path d=" M 1094.75 624.275 L 1094.75 624.275 C 1061.66 626.039 1033.405 600.645 1031.64 567.555 L 1025.25 447.725 L 1025.25 447.725 C 1058.34 445.961 1086.595 471.355 1088.36 504.445 L 1094.75 624.275 Z " fill="rgb(68,49,38)"/><path d=" M 1094.322 616.239 C 1075.866 606.833 1062.78 588.131 1061.598 565.957 L 1055.636 454.163 C 1074.092 463.57 1087.177 482.271 1088.36 504.445 L 1094.322 616.239 Z " fill="rgb(86,61,45)"/></g><path d=" M 831.624 372.815 L 847.798 393.966 C 859.528 409.305 877.922 418.061 897.223 417.493 L 975.952 415.177 C 1009.663 414.186 1036.593 440.867 1037.681 472.999 L 1037.681 473 C 1037.742 474.823 1037.731 476.66 1037.623 478.512 C 1034.632 503.114 1033 502.669 1033 502.669 C 1028.998 518.654 1020.807 519.567 1007.173 526.515 L 1007.173 526.515 L 940.845 526.515 L 940.794 525.703 L 819.215 529.388 L 759.073 530.602 L 759.073 530.602 C 718.298 531.149 707.298 533.649 706.132 465.544 C 707.544 450.012 708.067 434.423 707.701 418.852 L 831.624 372.815 L 831.624 372.815 Z " fill="rgb(170,115,77)"/><path d=" M 970 443 L 970 443 C 958.954 443 950 451.954 950 463 L 950 473 C 950 489.569 963.431 503 980 503 L 990 503 C 1001.046 503 1010 494.046 1010 483 L 1010 483 C 1010 460.909 992.091 443 970 443 Z " fill="rgb(196,136,102)"/><path d=" M 940.415 525.715 L 819.689 529.373 C 818.149 529.42 817.414 527.472 818.621 526.515 C 825.552 521.021 830 512.532 830 503 L 830 502.895 C 829.991 497.453 834.436 493 839.878 493 L 920.349 493 C 925.686 493 930.01 497.332 930.001 502.669 L 930 503 C 930 512.081 934.041 520.213 940.415 525.715 Z " fill="rgb(147,100,68)"/><path d=" M 741.539 406.281 L 749.005 438.802 C 751.309 448.837 748.118 459.244 740.853 466.539 C 732.617 474.809 726.182 484.873 722.178 496.093 C 720.435 500.978 713.661 501.329 711.433 496.645 C 706.994 487.312 704.902 476.682 705.915 465.543 L 705.915 465.543 C 707.324 450.038 707.848 434.476 707.485 418.933 L 741.539 406.281 L 741.539 406.281 Z " fill="rgb(147,100,68)"/><path d=" M 831.68 372.794 L 847.87 393.966 C 857.186 406.149 870.712 414.158 885.552 416.662 L 857.295 417.493 C 837.994 418.061 819.599 409.305 807.87 393.966 L 800.529 384.367 L 831.68 372.794 L 831.68 372.794 Z " fill="rgb(86,61,45)"/><path d=" M 831.53 372.85 L 847.678 393.966 C 850.708 397.928 854.189 401.44 858.009 404.473 C 843.016 402.045 829.335 393.996 819.937 381.706 L 817.228 378.163 L 831.53 372.85 L 831.53 372.85 Z " fill="rgb(109,78,60)"/><g><path d=" M 832.013 374.575 L 745.965 251.727 C 742.162 246.298 736.258 243.112 729.998 243.112 L 729.998 232.269 C 729.998 226.138 725.445 221.168 719.83 221.168 L 719.83 232.14 L 709.78 232.14 L 709.78 243.112 L 706.332 243.112 C 695.67 243.112 685.445 247.736 677.905 255.967 L 623.785 315.052 C 621.051 318.039 619.348 322.046 619.329 326.268 C 619.291 334.872 625.669 341.861 633.542 341.861 L 691.383 341.861 C 696.48 341.861 700.77 346.026 701.365 351.552 L 704.763 383.088 C 706.267 397.043 707.17 411.059 707.469 425.087 L 832.013 374.575 L 832.013 374.575 Z " fill="rgb(170,115,77)"/><path d=" M 719.83 254.085 L 709.663 254.085 L 709.663 221.168 C 715.279 221.168 719.83 226.138 719.83 232.269 L 719.83 254.085 Z " fill="rgb(127,86,57)"/><path d=" M 741.478 411.294 L 734.483 378.031 C 731.325 363.008 718.933 352.665 704.815 352.832 C 704.722 352.833 704.629 352.833 704.536 352.833 C 703.424 352.833 702.332 352.746 701.259 352.593 L 704.545 383.087 C 706.052 397.072 706.956 411.117 707.252 425.175 L 741.478 411.294 L 741.478 411.294 Z " fill="rgb(147,100,68)"/><path d=" M 714.365 281.318 C 716.099 289.563 710.635 297.442 702.908 298.045 C 702.795 298.054 702.682 298.064 702.569 298.074 C 690.297 299.207 680.457 310.205 679.681 323.624 C 679.608 324.888 679.614 326.134 679.692 327.358 C 680.2 335.221 674.396 341.861 667.176 341.861 L 633.542 341.861 C 625.669 341.861 619.291 334.872 619.329 326.267 C 619.348 322.045 621.051 318.038 623.785 315.052 L 677.905 255.967 C 685.445 247.736 695.67 243.112 706.331 243.112 L 714.365 281.318 Z " fill="rgb(196,136,102)"/><path d=" M 639.429 309.625 C 639.429 321.369 630.709 330.889 619.952 330.889 L 619.952 330.889 C 619.374 328.829 619.173 326.588 619.457 324.258 C 619.879 320.777 621.463 317.588 623.736 315.106 L 639.429 297.973 L 639.429 297.973 L 639.429 309.625 Z " fill="rgb(68,49,38)"/><path d=" M 694.705 276.029 C 691.93 276.029 689.68 278.485 689.68 281.515 C 689.68 284.544 691.93 287.001 694.705 287.001 C 697.48 287.001 699.73 284.544 699.73 281.515 C 699.73 278.485 697.48 276.029 694.705 276.029 Z " fill="rgb(68,49,38)"/><path d=" M 832.07 374.552 L 746.037 251.727 C 742.234 246.298 736.33 243.112 730.07 243.112 L 729.998 243.112 L 706.404 243.112 L 706.332 243.112 C 705.555 243.112 704.781 243.144 704.008 243.194 C 703.924 243.199 703.839 243.208 703.755 243.215 C 703.02 243.266 702.29 243.341 701.561 243.436 C 701.513 243.443 701.464 243.449 701.414 243.456 C 692.566 244.646 684.276 249.012 677.905 255.967 L 669.58 265.057 L 705.24 265.057 C 711.501 265.057 717.404 268.242 721.207 273.671 L 746.825 310.244 C 755.391 322.473 760.032 337.439 760.032 352.833 L 760.032 352.833 C 760.032 364.953 769.031 374.778 780.132 374.778 L 780.132 374.778 C 780.132 369.28 786.522 366.918 789.581 371.285 L 800.763 387.249 L 832.07 374.552 L 832.07 374.552 Z " fill="rgb(86,61,45)"/><path d=" M 831.92 374.613 L 745.844 251.727 C 742.041 246.298 736.138 243.112 729.877 243.112 L 729.805 243.112 L 706.211 243.112 L 706.139 243.112 C 705.362 243.112 704.589 243.144 703.816 243.191 C 703.732 243.197 703.648 243.206 703.563 243.212 C 702.828 243.264 702.098 243.338 701.369 243.434 C 701.321 243.441 701.272 243.447 701.222 243.454 C 694.402 244.371 687.918 247.182 682.386 251.604 L 717.367 251.604 C 723.627 251.604 729.531 254.789 733.334 260.218 L 758.951 296.791 C 763.233 302.903 766.581 314.382 768.904 324.538 C 771.572 336.205 781.243 344.342 792.258 344.342 L 792.258 344.342 L 817.545 380.443 L 831.92 374.613 L 831.92 374.613 Z " fill="rgb(109,78,60)"/></g></g></g></g></svg>