<?xml version="1.0" encoding="UTF-8" standalone="no"?><!-- Generator: Gravit.io --><svg xmlns="http://www.w3.org/2000/svg" xmlns:xlink="http://www.w3.org/1999/xlink" style="isolation:isolate" viewBox="619.329 221.168 514.632 479.285" width="514.632pt" height="479.285pt"><defs><clipPath id="_clipPath_SqtXw9bI3Xl2rVkrmHVmTZwrmpCIlSSN"><rect x="619.329" y="221.168" width="514.632" height="479.285"/></clipPath></defs><g clip-path="url(#_clipPath_SqtXw9bI3Xl2rVkrmHVmTZwrmpCIlSSN)"><g><g><g><path d=" M 1012.474 513.572 L 923.558 653.074 C 920.616 657.69 915.005 659.498 910.471 657.291 L 909.417 656.778 L 899.906 676.32 L 872.931 663.192 L 881.205 656.41 C 886.832 651.797 894.063 650.41 900.412 652.57 L 900.481 652.43 L 900.425 652.402 L 967.516 491.692 L 1012.474 513.572 Z " fill="rgb(127,86,57)"/><path d=" M 881.97 656.782 C 888.238 651.644 896.5 650.492 903.312 653.808 L 910.181 657.15 L 900.671 676.692 L 873.695 663.564 L 881.97 656.782 Z " fill="rgb(68,49,38)"/></g><g><path d=" M 998.317 508.797 C 994.618 513.247 991.042 520.039 987.862 530.863 L 945.998 666.957 C 944.779 672.773 940.098 676.756 935.081 676.246 L 933.915 676.128 L 931.53 699.625 L 901.683 696.595 L 907.199 686.539 C 910.931 679.736 917.234 675.567 923.906 675.296 L 924.004 674.33 L 927.503 601.933 L 932.328 502.098 L 998.317 508.797 L 998.317 508.797 Z " fill="rgb(170,115,77)"/><path d=" M 901.697 696.463 L 931.543 699.493 L 933.893 676.345 L 926.293 675.574 C 918.757 674.809 911.363 679.063 907.197 686.563 L 901.697 696.463 Z " fill="rgb(68,49,38)"/></g><g><path d=" M 809.668 507.252 L 773.514 670.243 C 772.317 675.636 767.656 679.288 762.64 678.76 L 761.475 678.637 L 759.18 700.453 L 729.345 697.315 L 734.818 688.027 C 738.53 681.729 744.83 677.909 751.514 677.744 L 751.514 677.744 L 751.53 677.591 L 759.942 502.021 L 809.668 507.252 Z " fill="rgb(127,86,57)"/><path d=" M 734.78 688.395 C 738.897 681.638 746.257 677.87 753.791 678.663 L 761.388 679.462 L 759.18 700.453 L 729.345 697.315 L 734.78 688.395 Z " fill="rgb(68,49,38)"/></g><g><path d=" M 739.144 499.331 C 740.095 499.788 741.049 500.241 742.021 500.666 L 701.462 668.505 L 701.401 668.676 C 694.834 667.362 687.669 670.022 682.366 675.917 L 674.544 684.612 L 702.825 694.622 L 710.888 671.842 L 711.993 672.233 C 716.747 673.916 722.272 671.057 724.879 665.567 L 795.118 517.637 L 796.329 518.016 L 739.144 499.331 L 739.144 499.331 Z " fill="rgb(170,115,77)"/><path d=" M 673.827 683.861 L 702.107 693.871 L 710.171 671.091 L 702.969 668.542 C 695.829 666.015 687.574 668.579 681.648 675.166 L 673.827 683.861 Z " fill="rgb(68,49,38)"/></g><g><path d=" M 1133.96 597.326 L 1133.96 597.326 C 1102.266 606.997 1068.733 589.144 1059.062 557.449 L 1024.04 442.674 L 1024.04 442.674 C 1055.734 433.003 1089.267 450.856 1098.938 482.551 L 1133.96 597.326 Z " fill="rgb(68,49,38)"/><path d=" M 1131.612 589.63 C 1111.435 584.938 1094.236 569.932 1087.756 548.694 L 1055.082 441.615 C 1075.259 446.307 1092.458 461.312 1098.938 482.551 L 1131.612 589.63 Z " fill="rgb(86,61,45)"/></g><path d=" M 831.624 372.815 L 847.798 393.966 C 859.528 409.305 877.922 418.061 897.223 417.493 L 975.952 415.177 C 1009.663 414.186 1036.593 440.867 1037.681 472.999 L 1037.681 473 C 1037.742 474.823 1037.731 476.66 1037.623 478.512 C 1034.632 503.114 1033 502.669 1033 502.669 C 1028.998 518.654 1020.807 519.567 1007.173 526.515 L 1007.173 526.515 L 940.845 526.515 L 940.794 525.703 L 819.215 529.388 L 759.073 530.602 L 759.073 530.602 C 718.298 531.149 707.298 533.649 706.132 465.544 C 707.544 450.012 708.067 434.423 707.701 418.852 L 831.624 372.815 L 831.624 372.815 Z " fill="rgb(170,115,77)"/><path d=" M 970 443 L 970 443 C 958.954 443 950 451.954 950 463 L 950 473 C 950 489.569 963.431 503 980 503 L 990 503 C 1001.046 503 1010 494.046 1010 483 L 1010 483 C 1010 460.909 992.091 443 970 443 Z " fill="rgb(196,136,102)"/><path d=" M 940.415 525.715 L 819.689 529.373 C 818.149 529.42 817.414 527.472 818.621 526.515 C 825.552 521.021 830 512.532 830 503 L 830 502.895 C 829.991 497.453 834.436 493 839.878 493 L 920.349 493 C 925.686 493 930.01 497.332 930.001 502.669 L 930 503 C 930 512.081 934.041 520.213 940.415 525.715 Z " fill="rgb(147,100,68)"/><path d=" M 741.539 406.281 L 749.005 438.802 C 751.309 448.837 748.118 459.244 740.853 466.539 C 732.617 474.809 726.182 484.873 722.178 496.093 C 720.435 500.978 713.661 501.329 711.433 496.645 C 706.994 487.312 704.902 476.682 705.915 465.543 L 705.915 465.543 C 707.324 450.038 707.848 434.476 707.485 418.933 L 741.539 406.281 L 741.539 406.281 Z " fill="rgb(147,100,68)"/><path d=" M 831.68 372.794 L 847.87 393.966 C 857.186 406.149 870.712 414.158 885.552 416.662 L 857.295 417.493 C 837.994 418.061 819.599 409.305 807.87 393.966 L 800.529 384.367 L 831.68 372.794 L 831.68 372.794 Z " fill="rgb(86,61,45)"/><path d=" M 831.53 372.85 L 847.678 393.966 C 850.708 397.928 854.189 401.44 858.009 404.473 C 843.016 402.045 829.335 393.996 819.937 381.706 L 817.228 378.163 L 831.53 372.85 L 831.53 372.85 Z " fill="rgb(109,78,60)"/><g><path d=" M 832.013 374.575 L 745.965 251.727 C 742.162 246.298 736.258 243.112 729.998 243.112 L 729.998 232.269 C 729.998 226.138 725.445 221.168 719.83 221.168 L 719.83 232.14 L 709.78 232.14 L 709.78 243.112 L 706.332 243.112 C 695.67 243.112 685.445 247.736 677.905 255.967 L 623.785 315.052 C 621.051 318.039 619.348 322.046 619.329 326.268 C 619.291 334.872 625.669 341.861 633.542 341.861 L 691.383 341.861 C 696.48 341.861 700.77 346.026 701.365 351.552 L 704.763 383.088 C 706.267 397.043 707.17 411.059 707.469 425.087 L 832.013 374.575 L 832.013 374.575 Z " fill="rgb(170,115,77)"/><path d=" M 719.83 254.085 L 709.663 254.085 L 709.663 221.168 C 715.279 221.168 719.83 226.138 719.83 232.269 L 719.83 254.085 Z " fill="rgb(127,86,57)"/><path d=" M 741.478 411.294 L 734.483 378.031 C 731.325 363.008 718.933 352.665 704.815 352.832 C 704.722 352.833 704.629 352.833 704.536 352.833 C 703.424 352.833 702.332 352.746 701.259 352.593 L 704.545 383.087 C 706.052 397.072 706.956 411.117 707.252 425.175 L 741.478 411.294 L 741.478 411.294 Z " fill="rgb(147,100,68)"/><path d=" M 714.365 281.318 C 716.099 289.563 710.635 297.442 702.908 298.045 C 702.795 298.054 702.682 298.064 702.569 298.074 C 690.297 299.207 680.457 310.205 679.681 323.624 C 679.608 324.888 679.614 326.134 679.692 327.358 C 680.2 335.221 674.396 341.861 667.176 341.861 L 633.542 341.861 C 625.669 341.861 619.291 334.872 619.329 326.267 C 619.348 322.045 621.051 318.038 623.785 315.052 L 677.905 255.967 C 685.445 247.736 695.67 243.112 706.331 243.112 L 714.365 281.318 Z " fill="rgb(196,136,102)"/><path d=" M 639.429 309.625 C 639.429 321.369 630.709 330.889 619.952 330.889 L 619.952 330.889 C 619.374 328.829 619.173 326.588 619.457 324.258 C 619.879 320.777 621.463 317.588 623.736 315.106 L 639.429 297.973 L 639.429 297.973 L 639.429 309.625 Z " fill="rgb(68,49,38)"/><path d=" M 694.705 276.029 C 691.93 276.029 689.68 278.485 689.68 281.515 C 689.68 284.544 691.93 287.001 694.705 287.001 C 697.48 287.001 699.73 284.544 699.73 281.515 C 699.73 278.485 697.48 276.029 694.705 276.029 Z " fill="rgb(68,49,38)"/><path d=" M 832.07 374.552 L 746.037 251.727 C 742.234 246.298 736.33 243.112 730.07 243.112 L 729.998 243.112 L 706.404 243.112 L 706.332 243.112 C 705.555 243.112 704.781 243.144 704.008 243.194 C 703.924 243.199 703.839 243.208 703.755 243.215 C 703.02 243.266 702.29 243.341 701.561 243.436 C 701.513 243.443 701.464 243.449 701.414 243.456 C 692.566 244.646 684.276 249.012 677.905 255.967 L 669.58 265.057 L 705.24 265.057 C 711.501 265.057 717.404 268.242 721.207 273.671 L 746.825 310.244 C 755.391 322.473 760.032 337.439 760.032 352.833 L 760.032 352.833 C 760.032 364.953 769.031 374.778 780.132 374.778 L 780.132 374.778 C 780.132 369.28 786.522 366.918 789.581 371.285 L 800.763 387.249 L 832.07 374.552 L 832.07 374.552 Z " fill="rgb(86,61,45)"/><path d=" M 831.92 374.613 L 745.844 251.727 C 742.041 246.298 736.138 243.112 729.877 243.112 L 729.805 243.112 L 706.211 243.112 L 706.139 243.112 C 705.362 243.112 704.589 243.144 703.816 243.191 C 703.732 243.197 703.648 243.206 703.563 243.212 C 702.828 243.264 702.098 243.338 701.369 243.434 C 701.321 243.441 701.272 243.447 701.222 243.454 C 694.402 244.371 687.918 247.182 682.386 251.604 L 717.367 251.604 C 723.627 251.604 729.531 254.789 733.334 260.218 L 758.951 296.791 C 763.233 302.903 766.581 314.382 768.904 324.538 C 771.572 336.205 781.243 344.342 792.258 344.342 L 792.258 344.342 L 817.545 380.443 L 831.92 374.613 L 831.92 374.613 Z " fill="rgb(109,78,60)"/></g></g></g></g></svg>