<?xml version="1.0" encoding="UTF-8" standalone="no"?><!-- Generator: Gravit.io --><svg xmlns="http://www.w3.org/2000/svg" xmlns:xlink="http://www.w3.org/1999/xlink" style="isolation:isolate" viewBox="629.051 227.313 548.112 480.646" width="548.112pt" height="480.646pt"><defs><clipPath id="_clipPath_q5dJyZ97z3GN96Qo6oydGOybtPG4HPu1"><rect x="629.051" y="227.313" width="548.112" height="480.646"/></clipPath></defs><g clip-path="url(#_clipPath_q5dJyZ97z3GN96Qo6oydGOybtPG4HPu1)"><g><g><g><path d=" M 1177.163 540.799 L 1177.163 540.799 C 1153.905 564.403 1115.916 564.683 1092.313 541.425 L 1006.837 457.201 L 1006.837 457.201 C 1030.095 433.597 1068.084 433.317 1091.687 456.575 L 1177.163 540.799 Z " fill="rgb(68,49,38)"/><path d=" M 1171.431 535.152 C 1151.457 540.64 1129.186 535.641 1113.369 520.056 L 1033.625 441.479 C 1053.599 435.991 1075.87 440.99 1091.687 456.575 L 1171.431 535.152 Z " fill="rgb(86,61,45)"/></g><g><path d=" M 985.625 498.248 L 981.842 663.634 C 981.716 669.106 977.854 673.56 972.832 674.021 L 971.665 674.129 L 973.654 695.771 L 943.78 698.516 L 947.344 688.429 C 949.767 681.568 955.233 676.635 961.783 675.194 L 961.768 675.038 L 961.707 675.044 L 935.835 502.825 L 985.625 498.248 Z " fill="rgb(127,86,57)"/><path d=" M 948.19 688.351 C 950.89 680.709 957.36 675.443 964.904 674.75 L 972.511 674.051 L 974.5 695.693 L 944.626 698.439 L 948.19 688.351 Z " fill="rgb(68,49,38)"/></g><g><path d=" M 1005.501 483.392 C 1005.146 489.168 1006.274 496.76 1010.104 507.372 L 1056.74 641.905 C 1059.192 647.318 1057.77 653.296 1053.421 655.85 L 1052.41 656.443 L 1064.369 676.809 L 1038.499 692 L 1037.008 680.628 C 1035.999 672.934 1038.62 665.847 1043.844 661.686 L 1043.352 660.849 L 1003.399 600.373 L 948.304 516.977 L 1005.501 483.392 L 1005.501 483.392 Z " fill="rgb(170,115,77)"/><path d=" M 1038.432 691.886 L 1064.302 676.695 L 1052.521 656.632 L 1045.933 660.5 C 1039.401 664.335 1035.95 672.136 1037.02 680.649 L 1038.432 691.886 Z " fill="rgb(68,49,38)"/></g><g><path d=" M 807.342 485.719 L 855.081 645.702 C 856.66 650.995 854.365 656.454 849.727 658.434 L 848.649 658.894 L 857.261 679.069 L 829.67 690.847 L 829.932 680.069 C 830.109 672.762 833.754 666.358 839.512 662.961 L 839.512 662.961 L 839.452 662.82 L 761.357 505.35 L 807.342 485.719 Z " fill="rgb(127,86,57)"/><path d=" M 830.077 680.41 C 830.386 672.503 834.981 665.63 841.949 662.655 L 848.975 659.656 L 857.261 679.069 L 829.67 690.847 L 830.077 680.41 Z " fill="rgb(68,49,38)"/></g><g><path d=" M 717.921 512.577 C 718.976 512.597 720.032 512.614 721.093 512.597 L 753.827 682.137 L 753.843 682.317 C 747.323 683.846 741.907 689.239 739.528 696.803 L 736.019 707.959 L 765.904 705.333 L 763.789 681.261 L 764.957 681.159 C 769.98 680.717 773.821 675.824 773.915 669.746 L 776.444 506.008 L 777.703 505.851 L 717.921 512.577 L 717.921 512.577 Z " fill="rgb(170,115,77)"/><path d=" M 735.055 707.574 L 764.94 704.948 L 762.824 680.876 L 755.215 681.545 C 747.669 682.208 741.222 687.965 738.564 696.418 L 735.055 707.574 Z " fill="rgb(68,49,38)"/></g><path d=" M 831.624 372.815 L 847.798 393.966 C 859.528 409.305 877.922 418.061 897.223 417.493 L 975.952 415.177 C 1009.663 414.186 1036.593 440.867 1037.681 472.999 L 1037.681 473 C 1037.742 474.823 1037.731 476.66 1037.623 478.512 C 1034.632 503.114 1033 502.669 1033 502.669 C 1028.998 518.654 1020.807 519.567 1007.173 526.515 L 1007.173 526.515 L 940.845 526.515 L 940.794 525.703 L 819.215 529.388 L 759.073 530.602 L 759.073 530.602 C 718.298 531.149 707.298 533.649 706.132 465.544 C 707.544 450.012 708.067 434.423 707.701 418.852 L 831.624 372.815 L 831.624 372.815 Z " fill="rgb(170,115,77)"/><path d=" M 970 443 L 970 443 C 958.954 443 950 451.954 950 463 L 950 473 C 950 489.569 963.431 503 980 503 L 990 503 C 1001.046 503 1010 494.046 1010 483 L 1010 483 C 1010 460.909 992.091 443 970 443 Z " fill="rgb(196,136,102)"/><path d=" M 940.415 525.715 L 819.689 529.373 C 818.149 529.42 817.414 527.472 818.621 526.515 C 825.552 521.021 830 512.532 830 503 L 830 502.895 C 829.991 497.453 834.436 493 839.878 493 L 920.349 493 C 925.686 493 930.01 497.332 930.001 502.669 L 930 503 C 930 512.081 934.041 520.213 940.415 525.715 Z " fill="rgb(147,100,68)"/><path d=" M 741.539 406.281 L 749.005 438.802 C 751.309 448.837 748.118 459.244 740.853 466.539 C 732.617 474.809 726.182 484.873 722.178 496.093 C 720.435 500.978 713.661 501.329 711.433 496.645 C 706.994 487.312 704.902 476.682 705.915 465.543 L 705.915 465.543 C 707.324 450.038 707.848 434.476 707.485 418.933 L 741.539 406.281 L 741.539 406.281 Z " fill="rgb(147,100,68)"/><path d=" M 831.68 372.794 L 847.87 393.966 C 857.186 406.149 870.712 414.158 885.552 416.662 L 857.295 417.493 C 837.994 418.061 819.599 409.305 807.87 393.966 L 800.529 384.367 L 831.68 372.794 L 831.68 372.794 Z " fill="rgb(86,61,45)"/><path d=" M 831.53 372.85 L 847.678 393.966 C 850.708 397.928 854.189 401.44 858.009 404.473 C 843.016 402.045 829.335 393.996 819.937 381.706 L 817.228 378.163 L 831.53 372.85 L 831.53 372.85 Z " fill="rgb(109,78,60)"/><g><path d=" M 850.019 409.1 L 781.077 266.02 C 778.03 259.697 772.269 255.219 765.494 253.91 L 767.628 242.869 C 768.835 236.626 764.886 230.615 758.81 229.44 L 756.65 240.612 L 745.775 238.51 L 743.615 249.681 L 739.884 248.96 C 728.346 246.73 716.371 249.299 706.592 256.103 L 636.399 304.943 C 632.852 307.411 630.221 311.135 629.369 315.43 C 627.635 324.183 633.161 332.633 641.681 334.28 L 704.274 346.378 C 709.789 347.444 713.612 352.582 713.169 358.332 L 710.64 391.153 C 709.521 405.676 707.74 420.135 705.303 434.482 L 850.019 409.1 L 850.019 409.1 Z " fill="rgb(170,115,77)"/><path d=" M 752.332 262.955 L 741.329 260.828 L 747.807 227.313 C 753.884 228.488 757.832 234.5 756.625 240.742 L 752.332 262.955 Z " fill="rgb(127,86,57)"/><path d=" M 744.819 427.551 L 743.797 392.22 C 743.335 376.263 731.961 363.14 716.65 360.358 C 716.549 360.339 716.449 360.32 716.348 360.301 C 715.145 360.068 713.98 359.75 712.849 359.37 L 710.404 391.106 C 709.283 405.66 707.496 420.15 705.05 434.526 L 744.819 427.551 L 744.819 427.551 Z " fill="rgb(147,100,68)"/><path d=" M 741.058 289.541 C 741.312 298.298 733.849 305.177 725.368 304.176 C 725.244 304.161 725.12 304.147 724.996 304.134 C 711.493 302.721 698.68 311.86 695.2 325.361 C 694.871 326.632 694.633 327.903 694.476 329.166 C 693.478 337.278 685.891 342.825 678.078 341.315 L 641.681 334.28 C 633.161 332.633 627.635 324.183 629.37 315.429 C 630.221 311.134 632.852 307.41 636.399 304.943 L 706.592 256.103 C 716.371 249.299 728.346 246.73 739.883 248.96 L 741.058 289.541 Z " fill="rgb(196,136,102)"/><path d=" M 654.396 302.689 C 652.085 314.646 640.775 322.516 629.134 320.266 L 629.134 320.266 C 628.914 318.047 629.138 315.724 629.903 313.41 C 631.045 309.955 633.387 307.038 636.335 304.987 L 656.689 290.825 L 656.689 290.825 L 654.396 302.689 Z " fill="rgb(68,49,38)"/><path d=" M 720.824 280.043 C 717.821 279.463 714.903 281.493 714.307 284.578 C 713.71 287.662 715.662 290.634 718.665 291.215 C 721.668 291.795 724.586 289.764 725.182 286.68 C 725.778 283.595 723.827 280.623 720.824 280.043 Z " fill="rgb(68,49,38)"/><path d=" M 850.084 409.089 L 781.155 266.036 C 778.108 259.712 772.347 255.234 765.572 253.925 L 765.494 253.91 L 739.962 248.975 L 739.884 248.96 C 739.043 248.798 738.2 248.668 737.354 248.557 C 737.261 248.545 737.168 248.536 737.075 248.525 C 736.27 248.424 735.465 248.347 734.658 248.292 C 734.604 248.288 734.549 248.285 734.495 248.281 C 724.686 247.643 714.855 250.354 706.592 256.103 L 695.794 263.616 L 734.384 271.075 C 741.159 272.384 746.92 276.862 749.967 283.185 L 770.492 325.782 C 777.355 340.024 779.432 356.233 776.402 371.908 L 776.402 371.908 C 774.017 384.248 781.822 396.133 793.835 398.455 L 793.835 398.455 C 794.917 392.857 802.297 391.79 804.748 396.876 L 813.707 415.469 L 850.084 409.089 L 850.084 409.089 Z " fill="rgb(86,61,45)"/><path d=" M 849.91 409.119 L 780.947 265.995 C 777.9 259.672 772.138 255.194 765.364 253.885 L 765.285 253.87 L 739.753 248.935 L 739.675 248.92 C 738.834 248.757 737.992 248.628 737.146 248.514 C 737.054 248.502 736.961 248.494 736.868 248.483 C 736.063 248.381 735.258 248.305 734.45 248.249 C 734.397 248.246 734.342 248.242 734.288 248.239 C 726.727 247.746 719.157 249.252 712.299 252.597 L 750.154 259.914 C 756.929 261.223 762.69 265.701 765.737 272.024 L 786.262 314.621 C 789.692 321.739 791.057 334.127 791.572 344.953 C 792.163 357.391 801.028 367.699 812.948 370.003 L 812.948 370.003 L 833.207 412.049 L 849.91 409.119 L 849.91 409.119 Z " fill="rgb(109,78,60)"/></g></g></g></g></svg>