<?xml version="1.0" encoding="UTF-8" standalone="no"?><!-- Generator: Gravit.io --><svg xmlns="http://www.w3.org/2000/svg" xmlns:xlink="http://www.w3.org/1999/xlink" style="isolation:isolate" viewBox="598.387 241.636 569.452 453.405" width="569.452pt" height="453.405pt"><defs><clipPath id="_clipPath_HLLNZdycrhOusbMFQogsomlAIf4jdULu"><rect x="598.387" y="241.636" width="569.452" height="453.405"/></clipPath></defs><g clip-path="url(#_clipPath_HLLNZdycrhOusbMFQogsomlAIf4jdULu)"><g><g><g><path d=" M 1027.521 512.487 L 940.932 653.444 C 938.066 658.108 932.486 660.009 927.915 657.878 L 926.853 657.383 L 917.668 677.08 L 890.479 664.401 L 898.64 657.482 C 904.189 652.777 911.396 651.27 917.78 653.325 L 917.846 653.183 L 917.79 653.156 L 982.205 491.356 L 1027.521 512.487 Z " fill="rgb(127,86,57)"/><path d=" M 899.41 657.842 C 905.592 652.6 913.834 651.312 920.7 654.513 L 927.624 657.742 L 918.439 677.439 L 891.25 664.76 L 899.41 657.842 Z " fill="rgb(68,49,38)"/></g><g><path d=" M 996.152 527.108 C 990.954 529.651 984.908 534.379 977.57 542.948 L 883.591 649.915 C 880.094 654.72 874.192 656.434 869.825 653.912 L 868.81 653.326 L 857.001 673.78 L 831.02 658.78 L 840.174 651.869 C 846.367 647.194 853.824 645.976 860.022 648.464 L 860.507 647.623 L 893.38 583.025 L 938.711 493.944 L 996.152 527.108 L 996.152 527.108 Z " fill="rgb(170,115,77)"/><path d=" M 831.086 658.665 L 857.067 673.665 L 868.701 653.515 L 862.085 649.696 C 855.525 645.908 847.037 646.757 840.162 651.89 L 831.086 658.665 Z " fill="rgb(68,49,38)"/></g><g><path d=" M 831.458 519.785 L 756.96 669.195 C 754.494 674.138 749.088 676.554 744.349 674.829 L 743.248 674.429 L 735.745 695.042 L 707.554 684.781 L 715.112 677.092 C 720.236 671.879 727.273 669.696 733.798 671.153 L 733.798 671.153 L 733.851 671.008 L 784.474 502.684 L 831.458 519.785 Z " fill="rgb(127,86,57)"/><path d=" M 714.985 677.441 C 720.614 671.88 728.667 670.004 735.786 672.595 L 742.964 675.207 L 735.745 695.042 L 707.554 684.781 L 714.985 677.441 Z " fill="rgb(68,49,38)"/></g><g><path d=" M 728.213 494.512 C 729.117 495.058 730.023 495.601 730.95 496.117 L 674.468 659.288 L 674.391 659.452 C 667.981 657.514 660.593 659.474 654.749 664.833 L 646.129 672.737 L 673.318 685.415 L 683.531 663.514 L 684.593 664.01 C 689.163 666.141 694.937 663.826 698.059 658.611 L 782.172 518.105 L 783.341 518.599 L 728.213 494.512 L 728.213 494.512 Z " fill="rgb(170,115,77)"/><path d=" M 645.486 671.92 L 672.676 684.599 L 682.888 662.698 L 675.965 659.47 C 669.1 656.268 660.637 658.028 654.106 664.016 L 645.486 671.92 Z " fill="rgb(68,49,38)"/></g><g><path d=" M 1167.839 535.454 L 1167.839 535.454 C 1144.4 558.878 1106.41 558.865 1082.986 535.426 L 998.161 450.546 L 998.161 450.546 C 1021.6 427.122 1059.59 427.135 1083.014 450.574 L 1167.839 535.454 Z " fill="rgb(68,49,38)"/><path d=" M 1162.151 529.762 C 1142.135 535.096 1119.903 529.926 1104.206 514.22 L 1025.069 435.032 C 1045.086 429.697 1067.317 434.867 1083.014 450.574 L 1162.151 529.762 Z " fill="rgb(86,61,45)"/></g><path d=" M 831.624 372.815 L 847.798 393.966 C 859.528 409.305 877.922 418.061 897.223 417.493 L 975.952 415.177 C 1009.663 414.186 1036.593 440.867 1037.681 472.999 L 1037.681 473 C 1037.742 474.823 1037.731 476.66 1037.623 478.512 C 1034.632 503.114 1033 502.669 1033 502.669 C 1028.998 518.654 1020.807 519.567 1007.173 526.515 L 1007.173 526.515 L 940.845 526.515 L 940.794 525.703 L 819.215 529.388 L 759.073 530.602 L 759.073 530.602 C 718.298 531.149 707.298 533.649 706.132 465.544 C 707.544 450.012 708.067 434.423 707.701 418.852 L 831.624 372.815 L 831.624 372.815 Z " fill="rgb(170,115,77)"/><path d=" M 970 443 L 970 443 C 958.954 443 950 451.954 950 463 L 950 473 C 950 489.569 963.431 503 980 503 L 990 503 C 1001.046 503 1010 494.046 1010 483 L 1010 483 C 1010 460.909 992.091 443 970 443 Z " fill="rgb(196,136,102)"/><path d=" M 940.415 525.715 L 819.689 529.373 C 818.149 529.42 817.414 527.472 818.621 526.515 C 825.552 521.021 830 512.532 830 503 L 830 502.895 C 829.991 497.453 834.436 493 839.878 493 L 920.349 493 C 925.686 493 930.01 497.332 930.001 502.669 L 930 503 C 930 512.081 934.041 520.213 940.415 525.715 Z " fill="rgb(147,100,68)"/><path d=" M 741.539 406.281 L 749.005 438.802 C 751.309 448.837 748.118 459.244 740.853 466.539 C 732.617 474.809 726.182 484.873 722.178 496.093 C 720.435 500.978 713.661 501.329 711.433 496.645 C 706.994 487.312 704.902 476.682 705.915 465.543 L 705.915 465.543 C 707.324 450.038 707.848 434.476 707.485 418.933 L 741.539 406.281 L 741.539 406.281 Z " fill="rgb(147,100,68)"/><path d=" M 831.68 372.794 L 847.87 393.966 C 857.186 406.149 870.712 414.158 885.552 416.662 L 857.295 417.493 C 837.994 418.061 819.599 409.305 807.87 393.966 L 800.529 384.367 L 831.68 372.794 L 831.68 372.794 Z " fill="rgb(86,61,45)"/><path d=" M 831.53 372.85 L 847.678 393.966 C 850.708 397.928 854.189 401.44 858.009 404.473 C 843.016 402.045 829.335 393.996 819.937 381.706 L 817.228 378.163 L 831.53 372.85 L 831.53 372.85 Z " fill="rgb(109,78,60)"/><g><path d=" M 839.54 383.091 L 719.329 269.146 C 714.016 264.111 706.926 261.967 700.152 263.348 L 697.759 251.614 C 696.407 244.98 690.384 240.607 684.308 241.846 L 686.729 253.719 L 675.854 255.936 L 678.275 267.808 L 674.544 268.569 C 663.007 270.921 652.963 278.18 646.621 288.75 L 601.095 364.622 C 598.795 368.457 597.837 373.169 598.748 377.741 C 600.605 387.06 609.048 393.216 617.567 391.479 L 680.154 378.718 C 685.669 377.594 691.23 381.154 693.093 387.002 L 703.727 420.376 C 708.433 435.144 712.502 450.11 715.921 465.224 L 839.54 383.091 L 839.54 383.091 Z " fill="rgb(170,115,77)"/><path d=" M 691.57 277.463 L 680.568 279.706 L 673.307 244.089 C 679.383 242.85 685.405 247.223 686.757 253.858 L 691.57 277.463 Z " fill="rgb(127,86,57)"/><path d=" M 749.677 442.796 L 734.77 408.347 C 728.038 392.788 712.347 384.33 697.109 387.626 C 697.008 387.648 696.908 387.668 696.806 387.689 C 695.604 387.934 694.402 388.08 693.207 388.152 L 703.491 420.422 C 708.207 435.222 712.283 450.22 715.705 465.367 L 749.677 442.796 L 749.677 442.796 Z " fill="rgb(147,100,68)"/><path d=" M 691.665 308.137 C 695.36 316.676 691.186 326.407 682.958 328.764 C 682.838 328.799 682.717 328.835 682.598 328.87 C 669.569 332.804 661.347 346.874 663.468 361.566 C 663.668 362.949 663.949 364.297 664.304 365.604 C 666.588 374 661.773 382.466 653.96 384.059 L 617.567 391.479 C 609.048 393.216 600.605 387.06 598.747 377.74 C 597.837 373.167 598.795 368.456 601.095 364.622 L 646.621 288.75 C 652.963 278.18 663.007 270.921 674.543 268.569 L 691.665 308.137 Z " fill="rgb(196,136,102)"/><path d=" M 616.826 355.299 C 619.416 368.006 612.081 380.231 600.441 382.604 L 600.441 382.604 C 599.362 380.502 598.65 378.122 598.442 375.538 C 598.131 371.679 599.141 367.878 601.054 364.691 L 614.255 342.69 L 614.255 342.69 L 616.826 355.299 Z " fill="rgb(68,49,38)"/><path d=" M 669.225 306.751 C 666.222 307.363 664.329 310.518 664.998 313.796 C 665.666 317.074 668.643 319.236 671.645 318.623 C 674.648 318.011 676.541 314.857 675.872 311.579 C 675.204 308.301 672.227 306.139 669.225 306.751 Z " fill="rgb(68,49,38)"/><path d=" M 839.596 383.054 L 719.407 269.13 C 714.094 264.095 707.004 261.951 700.23 263.332 L 700.152 263.348 L 674.622 268.553 L 674.544 268.569 C 673.703 268.74 672.873 268.945 672.048 269.169 C 671.957 269.194 671.868 269.222 671.778 269.248 C 670.994 269.466 670.22 269.708 669.453 269.972 C 669.402 269.989 669.35 270.007 669.299 270.025 C 659.987 273.266 651.98 279.819 646.621 288.75 L 639.617 300.422 L 678.204 292.554 C 684.978 291.173 692.068 293.318 697.381 298.353 L 733.169 332.275 C 745.136 343.618 753.459 358.788 756.856 375.446 L 756.856 375.446 C 759.529 388.56 771.434 397.205 783.446 394.756 L 783.446 394.756 C 782.233 388.807 788.627 384.842 792.9 388.892 L 808.522 403.699 L 839.596 383.054 L 839.596 383.054 Z " fill="rgb(86,61,45)"/><path d=" M 839.447 383.153 L 719.198 269.173 C 713.886 264.138 706.795 261.993 700.021 263.374 L 699.943 263.39 L 674.413 268.596 L 674.335 268.611 C 673.494 268.783 672.665 268.988 671.839 269.209 C 671.749 269.234 671.66 269.262 671.57 269.288 C 670.786 269.506 670.012 269.748 669.245 270.012 C 669.194 270.029 669.142 270.047 669.09 270.065 C 661.913 272.562 655.517 277.035 650.506 283.04 L 688.358 275.322 C 695.131 273.941 702.222 276.086 707.535 281.121 L 743.323 315.044 C 749.304 320.712 755.46 332.394 760.213 342.871 C 765.675 354.907 777.935 361.578 789.853 359.148 L 789.853 359.148 L 825.179 392.632 L 839.447 383.153 L 839.447 383.153 Z " fill="rgb(109,78,60)"/></g></g></g></g></svg>