<?xml version="1.0" encoding="UTF-8" standalone="no"?><!-- Generator: Gravit.io --><svg xmlns="http://www.w3.org/2000/svg" xmlns:xlink="http://www.w3.org/1999/xlink" style="isolation:isolate" viewBox="630.336 226 546.827 480.823" width="546.827pt" height="480.823pt"><defs><clipPath id="_clipPath_9uXmbQzkhVRX5Jj2CntmbcrVqYT1fTDl"><rect x="630.336" y="226" width="546.827" height="480.823"/></clipPath></defs><g clip-path="url(#_clipPath_9uXmbQzkhVRX5Jj2CntmbcrVqYT1fTDl)"><g><g><g><path d=" M 1177.163 540.799 L 1177.163 540.799 C 1153.905 564.403 1115.916 564.683 1092.313 541.425 L 1006.837 457.201 L 1006.837 457.201 C 1030.095 433.597 1068.084 433.317 1091.687 456.575 L 1177.163 540.799 Z " fill="rgb(68,49,38)"/><path d=" M 1171.431 535.152 C 1151.457 540.64 1129.186 535.641 1113.369 520.056 L 1033.625 441.479 C 1053.599 435.991 1075.87 440.99 1091.687 456.575 L 1171.431 535.152 Z " fill="rgb(86,61,45)"/></g><g><path d=" M 944.417 493.002 L 1027.316 636.162 C 1030.058 640.899 1029.08 646.712 1025.033 649.722 L 1024.093 650.421 L 1037.061 667.861 L 1012.988 685.762 L 1010.777 675.295 C 1009.273 668.176 1011.371 661.118 1016.211 656.477 L 1016.118 656.351 L 1016.068 656.388 L 904.295 522.838 L 944.417 493.002 Z " fill="rgb(127,86,57)"/><path d=" M 1011.459 674.788 C 1009.784 666.857 1012.566 658.993 1018.645 654.472 L 1024.775 649.914 L 1037.743 667.354 L 1013.67 685.255 L 1011.459 674.788 Z " fill="rgb(68,49,38)"/></g><g><path d=" M 993.873 474.021 C 995.694 479.515 999.565 486.142 1007.069 494.566 L 1100.417 602.085 C 1104.707 606.197 1105.612 612.275 1102.525 616.264 L 1101.808 617.191 L 1120.486 631.644 L 1102.127 655.37 L 1096.511 645.37 C 1092.711 638.604 1092.508 631.05 1095.807 625.245 L 1095.04 624.65 L 1035.452 583.384 L 953.281 526.478 L 993.873 474.021 L 993.873 474.021 Z " fill="rgb(170,115,77)"/><path d=" M 1102.022 655.289 L 1120.382 631.563 L 1101.981 617.324 L 1097.306 623.366 C 1092.67 629.356 1092.369 637.881 1096.53 645.385 L 1102.022 655.289 Z " fill="rgb(68,49,38)"/></g><g><path d=" M 790.187 481.076 L 864.25 630.703 C 866.7 635.653 865.36 641.421 861.122 644.156 L 860.138 644.792 L 872.032 663.223 L 846.826 679.49 L 845.264 668.823 C 844.205 661.59 846.716 654.663 851.819 650.343 L 851.819 650.343 L 851.735 650.214 L 748.176 508.189 L 790.187 481.076 Z " fill="rgb(127,86,57)"/><path d=" M 845.465 669.134 C 844.434 661.288 847.803 653.738 854.169 649.63 L 860.587 645.488 L 872.032 663.223 L 846.826 679.49 L 845.465 669.134 Z " fill="rgb(68,49,38)"/></g><g><path d=" M 717.016 515.935 C 718.064 515.807 719.112 515.675 720.16 515.509 L 776.44 678.75 L 776.481 678.926 C 770.241 681.358 765.639 687.46 764.349 695.283 L 762.446 706.823 L 791.663 700.015 L 786.179 676.48 L 787.321 676.214 C 792.232 675.07 795.345 669.685 794.583 663.655 L 774.032 501.191 L 775.256 500.858 L 717.016 515.935 L 717.016 515.935 Z " fill="rgb(170,115,77)"/><path d=" M 761.436 706.577 L 790.654 699.769 L 785.17 676.235 L 777.73 677.968 C 770.353 679.687 764.781 686.295 763.339 695.038 L 761.436 706.577 Z " fill="rgb(68,49,38)"/></g><path d=" M 831.624 372.815 L 847.798 393.966 C 859.528 409.305 877.922 418.061 897.223 417.493 L 975.952 415.177 C 1009.663 414.186 1036.593 440.867 1037.681 472.999 L 1037.681 473 C 1037.742 474.823 1037.731 476.66 1037.623 478.512 C 1034.632 503.114 1033 502.669 1033 502.669 C 1028.998 518.654 1020.807 519.567 1007.173 526.515 L 1007.173 526.515 L 940.845 526.515 L 940.794 525.703 L 819.215 529.388 L 759.073 530.602 L 759.073 530.602 C 718.298 531.149 707.298 533.649 706.132 465.544 C 707.544 450.012 708.067 434.423 707.701 418.852 L 831.624 372.815 L 831.624 372.815 Z " fill="rgb(170,115,77)"/><path d=" M 970 443 L 970 443 C 958.954 443 950 451.954 950 463 L 950 473 C 950 489.569 963.431 503 980 503 L 990 503 C 1001.046 503 1010 494.046 1010 483 L 1010 483 C 1010 460.909 992.091 443 970 443 Z " fill="rgb(196,136,102)"/><path d=" M 940.415 525.715 L 819.689 529.373 C 818.149 529.42 817.414 527.472 818.621 526.515 C 825.552 521.021 830 512.532 830 503 L 830 502.895 C 829.991 497.453 834.436 493 839.878 493 L 920.349 493 C 925.686 493 930.01 497.332 930.001 502.669 L 930 503 C 930 512.081 934.041 520.213 940.415 525.715 Z " fill="rgb(147,100,68)"/><path d=" M 741.539 406.281 L 749.005 438.802 C 751.309 448.837 748.118 459.244 740.853 466.539 C 732.617 474.809 726.182 484.873 722.178 496.093 C 720.435 500.978 713.661 501.329 711.433 496.645 C 706.994 487.312 704.902 476.682 705.915 465.543 L 705.915 465.543 C 707.324 450.038 707.848 434.476 707.485 418.933 L 741.539 406.281 L 741.539 406.281 Z " fill="rgb(147,100,68)"/><path d=" M 831.68 372.794 L 847.87 393.966 C 857.186 406.149 870.712 414.158 885.552 416.662 L 857.295 417.493 C 837.994 418.061 819.599 409.305 807.87 393.966 L 800.529 384.367 L 831.68 372.794 L 831.68 372.794 Z " fill="rgb(86,61,45)"/><path d=" M 831.53 372.85 L 847.678 393.966 C 850.708 397.928 854.189 401.44 858.009 404.473 C 843.016 402.045 829.335 393.996 819.937 381.706 L 817.228 378.163 L 831.53 372.85 L 831.53 372.85 Z " fill="rgb(109,78,60)"/><g><path d=" M 851.304 407.787 L 782.363 264.707 C 779.316 258.384 773.554 253.906 766.779 252.597 L 768.913 241.556 C 770.12 235.313 766.171 229.301 760.095 228.127 L 757.936 239.298 L 747.06 237.196 L 744.901 248.368 L 741.169 247.647 C 729.631 245.417 717.656 247.986 707.878 254.79 L 637.684 303.629 C 634.137 306.098 631.506 309.822 630.655 314.117 C 628.92 322.869 634.447 331.32 642.967 332.966 L 705.56 345.065 C 711.075 346.13 714.898 351.269 714.454 357.019 L 711.925 389.839 C 710.806 404.363 709.025 418.822 706.588 433.168 L 851.304 407.787 L 851.304 407.787 Z " fill="rgb(170,115,77)"/><path d=" M 753.617 261.642 L 742.614 259.515 L 749.092 226 C 755.169 227.175 759.117 233.186 757.911 239.429 L 753.617 261.642 Z " fill="rgb(127,86,57)"/><path d=" M 746.105 426.238 L 745.082 390.906 C 744.62 374.95 733.246 361.826 717.936 359.044 C 717.834 359.026 717.734 359.007 717.633 358.987 C 716.43 358.755 715.265 358.437 714.134 358.057 L 711.689 389.792 C 710.568 404.347 708.782 418.836 706.336 433.213 L 746.105 426.238 L 746.105 426.238 Z " fill="rgb(147,100,68)"/><path d=" M 742.344 288.227 C 742.597 296.984 735.135 303.864 726.653 302.862 C 726.53 302.848 726.405 302.834 726.281 302.82 C 712.778 301.408 699.965 310.547 696.485 324.047 C 696.157 325.319 695.918 326.589 695.762 327.853 C 694.764 335.964 687.176 341.511 679.363 340.001 L 642.967 332.966 C 634.447 331.32 628.92 322.869 630.655 314.116 C 631.507 309.821 634.138 306.097 637.684 303.629 L 707.878 254.79 C 717.656 247.986 729.631 245.417 741.168 247.646 L 742.344 288.227 Z " fill="rgb(196,136,102)"/><path d=" M 655.681 301.376 C 653.37 313.333 642.06 321.202 630.42 318.952 L 630.42 318.952 C 630.2 316.734 630.423 314.41 631.189 312.097 C 632.33 308.641 634.672 305.725 637.62 303.674 L 657.975 289.511 L 657.975 289.511 L 655.681 301.376 Z " fill="rgb(68,49,38)"/><path d=" M 722.109 278.73 C 719.107 278.149 716.188 280.18 715.592 283.264 C 714.996 286.349 716.947 289.321 719.95 289.901 C 722.953 290.482 725.872 288.451 726.468 285.366 C 727.064 282.282 725.112 279.31 722.109 278.73 Z " fill="rgb(68,49,38)"/><path d=" M 851.37 407.775 L 782.441 264.722 C 779.394 258.399 773.632 253.921 766.858 252.612 L 766.779 252.597 L 741.248 247.662 L 741.169 247.647 C 740.329 247.484 739.485 247.355 738.639 247.243 C 738.546 247.231 738.453 247.222 738.361 247.212 C 737.556 247.11 736.75 247.034 735.943 246.978 C 735.889 246.975 735.835 246.971 735.78 246.968 C 725.971 246.329 716.14 249.04 707.878 254.79 L 697.079 262.303 L 735.67 269.762 C 742.444 271.071 748.206 275.549 751.253 281.872 L 771.777 324.468 C 778.64 338.711 780.717 354.92 777.688 370.594 L 777.688 370.594 C 775.303 382.935 783.107 394.82 795.121 397.142 L 795.121 397.142 C 796.203 391.544 803.582 390.476 806.033 395.562 L 814.992 414.156 L 851.37 407.775 L 851.37 407.775 Z " fill="rgb(86,61,45)"/><path d=" M 851.195 407.806 L 782.232 264.682 C 779.185 258.359 773.423 253.881 766.649 252.571 L 766.571 252.556 L 741.039 247.621 L 740.961 247.606 C 740.12 247.444 739.277 247.314 738.432 247.201 C 738.339 247.189 738.246 247.18 738.153 247.169 C 737.348 247.068 736.543 246.991 735.736 246.936 C 735.682 246.933 735.628 246.929 735.573 246.925 C 728.012 246.433 720.442 247.939 713.585 251.284 L 751.44 258.6 C 758.214 259.91 763.976 264.388 767.023 270.711 L 787.548 313.307 C 790.978 320.425 792.343 332.814 792.857 343.64 C 793.449 356.078 802.313 366.385 814.233 368.689 L 814.233 368.689 L 834.493 410.735 L 851.195 407.806 L 851.195 407.806 Z " fill="rgb(109,78,60)"/></g></g></g></g></svg>