<?xml version="1.0" encoding="UTF-8" standalone="no"?><!-- Generator: Gravit.io --><svg xmlns="http://www.w3.org/2000/svg" xmlns:xlink="http://www.w3.org/1999/xlink" style="isolation:isolate" viewBox="429.173 166 546.827 463.446" width="546.827pt" height="463.446pt"><defs><clipPath id="_clipPath_dkQIeGv61309lRDuxpuiJXcxhs6ytiGN"><rect x="429.173" y="166" width="546.827" height="463.446"/></clipPath></defs><g clip-path="url(#_clipPath_dkQIeGv61309lRDuxpuiJXcxhs6ytiGN)"><g><g><g><path d=" M 976 480.799 L 976 480.799 C 952.742 504.403 914.753 504.683 891.149 481.425 L 805.673 397.201 L 805.673 397.201 C 828.931 373.597 866.92 373.317 890.524 396.575 L 976 480.799 Z " fill="rgb(68,49,38)"/><path d=" M 970.268 475.152 C 950.293 480.64 928.022 475.641 912.206 460.056 L 832.461 381.479 C 852.436 375.991 874.707 380.99 890.524 396.575 L 970.268 475.152 Z " fill="rgb(86,61,45)"/></g><g><path d=" M 765.159 420.867 L 774.985 586.004 C 775.309 591.468 771.826 596.224 766.859 597.097 L 765.705 597.3 L 769.466 618.705 L 739.919 623.897 L 742.641 613.551 C 744.492 606.514 749.535 601.149 755.944 599.174 L 755.917 599.02 L 755.856 599.031 L 715.914 429.521 L 765.159 420.867 Z " fill="rgb(127,86,57)"/><path d=" M 743.479 613.404 C 745.541 605.566 751.557 599.786 759.018 598.475 L 766.542 597.153 L 770.303 618.558 L 740.756 623.75 L 743.479 613.404 Z " fill="rgb(68,49,38)"/></g><g><path d=" M 815.793 418.169 C 814.33 423.768 813.97 431.435 815.678 442.586 L 835.453 583.594 C 836.813 589.378 834.263 594.97 829.503 596.635 L 828.397 597.022 L 836.196 619.315 L 807.88 629.223 L 808.613 617.777 C 809.109 610.033 813.05 603.586 818.978 600.512 L 818.658 599.595 L 791.137 532.541 L 753.187 440.075 L 815.793 418.169 L 815.793 418.169 Z " fill="rgb(170,115,77)"/><path d=" M 807.836 629.098 L 836.153 619.19 L 828.469 597.228 L 821.258 599.751 C 814.108 602.253 809.215 609.24 808.621 617.8 L 807.836 629.098 Z " fill="rgb(68,49,38)"/></g><g><path d=" M 579.083 414.287 L 659.064 560.835 C 661.71 565.684 660.601 571.501 656.477 574.402 L 655.518 575.077 L 668.14 593.018 L 643.603 610.279 L 641.616 599.683 C 640.269 592.499 642.502 585.477 647.428 580.956 L 647.428 580.956 L 647.339 580.831 L 538.189 443.056 L 579.083 414.287 Z " fill="rgb(127,86,57)"/><path d=" M 641.83 599.986 C 640.486 592.188 643.551 584.509 649.747 580.15 L 655.995 575.755 L 668.14 593.018 L 643.603 610.279 L 641.83 599.986 Z " fill="rgb(68,49,38)"/></g><g><path d=" M 509.407 448.312 C 510.421 448.017 511.434 447.719 512.442 447.387 L 594.166 599.493 L 594.235 599.661 C 588.465 603.061 584.901 609.822 584.881 617.751 L 584.853 629.446 L 612.601 618.043 L 603.415 595.692 L 604.499 595.246 C 609.164 593.329 611.373 587.514 609.654 581.684 L 563.322 424.617 L 564.477 424.092 L 509.407 448.312 L 509.407 448.312 Z " fill="rgb(170,115,77)"/><path d=" M 583.817 629.366 L 611.565 617.962 L 602.38 595.611 L 595.314 598.515 C 588.308 601.394 583.867 608.81 583.846 617.67 L 583.817 629.366 Z " fill="rgb(68,49,38)"/></g><path d=" M 630.46 312.815 L 646.635 333.966 C 658.365 349.305 676.759 358.061 696.06 357.493 L 774.789 355.177 C 808.5 354.186 835.43 380.867 836.518 412.999 L 836.518 413 C 836.579 414.823 836.568 416.66 836.46 418.512 C 833.468 443.114 831.837 442.669 831.837 442.669 C 827.835 458.654 819.644 459.567 806.009 466.515 L 806.009 466.515 L 739.681 466.515 L 739.631 465.703 L 618.052 469.388 L 557.909 470.602 L 557.909 470.602 C 517.135 471.149 506.135 473.649 504.969 405.544 C 506.38 390.012 506.904 374.423 506.537 358.852 L 630.46 312.815 L 630.46 312.815 Z " fill="rgb(170,115,77)"/><path d=" M 768.837 383 L 768.837 383 C 757.791 383 748.837 391.954 748.837 403 L 748.837 413 C 748.837 429.569 762.268 443 778.837 443 L 788.837 443 C 799.883 443 808.837 434.046 808.837 423 L 808.837 423 C 808.837 400.909 790.928 383 768.837 383 Z " fill="rgb(196,136,102)"/><path d=" M 739.252 465.715 L 618.526 469.373 C 616.986 469.42 616.251 467.472 617.458 466.515 C 624.389 461.021 628.837 452.532 628.837 443 L 628.837 442.895 C 628.828 437.453 633.273 433 638.715 433 L 719.186 433 C 724.523 433 728.847 437.332 728.838 442.669 L 728.837 443 C 728.837 452.081 732.878 460.213 739.252 465.715 Z " fill="rgb(147,100,68)"/><path d=" M 540.376 346.281 L 547.842 378.802 C 550.146 388.837 546.955 399.244 539.69 406.539 C 531.454 414.809 525.019 424.873 521.015 436.093 C 519.272 440.978 512.498 441.329 510.27 436.645 C 505.831 427.312 503.739 416.682 504.752 405.543 L 504.752 405.543 C 506.161 390.038 506.685 374.476 506.321 358.933 L 540.376 346.281 L 540.376 346.281 Z " fill="rgb(147,100,68)"/><path d=" M 630.516 312.794 L 646.707 333.966 C 656.023 346.149 669.549 354.158 684.389 356.662 L 656.132 357.493 C 636.831 358.061 618.436 349.305 606.707 333.966 L 599.366 324.367 L 630.516 312.794 L 630.516 312.794 Z " fill="rgb(86,61,45)"/><path d=" M 630.367 312.85 L 646.515 333.966 C 649.545 337.928 653.026 341.44 656.846 344.473 C 641.853 342.045 628.172 333.996 618.774 321.706 L 616.064 318.163 L 630.367 312.85 L 630.367 312.85 Z " fill="rgb(109,78,60)"/><g><path d=" M 650.141 347.787 L 581.199 204.707 C 578.152 198.384 572.391 193.906 565.616 192.597 L 567.75 181.556 C 568.957 175.313 565.008 169.301 558.932 168.127 L 556.772 179.298 L 545.897 177.196 L 543.737 188.368 L 540.006 187.647 C 528.468 185.417 516.493 187.986 506.714 194.79 L 436.521 243.629 C 432.974 246.098 430.343 249.822 429.491 254.117 C 427.757 262.869 433.283 271.32 441.803 272.966 L 504.396 285.065 C 509.911 286.13 513.734 291.269 513.291 297.019 L 510.762 329.839 C 509.643 344.363 507.862 358.822 505.425 373.168 L 650.141 347.787 L 650.141 347.787 Z " fill="rgb(170,115,77)"/><path d=" M 552.454 201.642 L 541.451 199.515 L 547.929 166 C 554.006 167.175 557.954 173.186 556.747 179.429 L 552.454 201.642 Z " fill="rgb(127,86,57)"/><path d=" M 544.941 366.238 L 543.919 330.906 C 543.457 314.95 532.083 301.826 516.772 299.044 C 516.671 299.026 516.571 299.007 516.47 298.987 C 515.267 298.755 514.102 298.437 512.971 298.057 L 510.526 329.792 C 509.405 344.347 507.618 358.836 505.173 373.213 L 544.941 366.238 L 544.941 366.238 Z " fill="rgb(147,100,68)"/><path d=" M 541.18 228.227 C 541.434 236.984 533.971 243.864 525.49 242.862 C 525.367 242.848 525.242 242.834 525.118 242.82 C 511.615 241.408 498.802 250.547 495.322 264.047 C 494.993 265.319 494.755 266.589 494.599 267.853 C 493.6 275.964 486.013 281.511 478.2 280.001 L 441.803 272.966 C 433.283 271.32 427.757 262.869 429.492 254.116 C 430.343 249.821 432.974 246.097 436.521 243.629 L 506.714 194.79 C 516.493 187.986 528.468 185.417 540.005 187.646 L 541.18 228.227 Z " fill="rgb(196,136,102)"/><path d=" M 454.518 241.376 C 452.207 253.333 440.897 261.202 429.256 258.952 L 429.256 258.952 C 429.036 256.734 429.26 254.41 430.025 252.097 C 431.167 248.641 433.509 245.725 436.457 243.674 L 456.811 229.511 L 456.811 229.511 L 454.518 241.376 Z " fill="rgb(68,49,38)"/><path d=" M 520.946 218.73 C 517.943 218.149 515.025 220.18 514.429 223.264 C 513.832 226.349 515.784 229.321 518.787 229.901 C 521.79 230.482 524.708 228.451 525.304 225.366 C 525.9 222.282 523.949 219.31 520.946 218.73 Z " fill="rgb(68,49,38)"/><path d=" M 650.206 347.775 L 581.277 204.722 C 578.23 198.399 572.469 193.921 565.694 192.612 L 565.616 192.597 L 540.084 187.662 L 540.006 187.647 C 539.165 187.484 538.322 187.355 537.476 187.243 C 537.383 187.231 537.29 187.222 537.197 187.212 C 536.392 187.11 535.587 187.034 534.78 186.978 C 534.726 186.975 534.671 186.971 534.617 186.968 C 524.808 186.329 514.977 189.04 506.714 194.79 L 495.916 202.303 L 534.506 209.762 C 541.281 211.071 547.042 215.549 550.089 221.872 L 570.614 264.468 C 577.477 278.711 579.554 294.92 576.524 310.594 L 576.524 310.594 C 574.139 322.935 581.944 334.82 593.957 337.142 L 593.957 337.142 C 595.039 331.544 602.419 330.476 604.87 335.562 L 613.829 354.156 L 650.206 347.775 L 650.206 347.775 Z " fill="rgb(86,61,45)"/><path d=" M 650.032 347.806 L 581.069 204.682 C 578.022 198.359 572.26 193.881 565.486 192.571 L 565.407 192.556 L 539.875 187.621 L 539.797 187.606 C 538.956 187.444 538.114 187.314 537.268 187.201 C 537.176 187.189 537.083 187.18 536.99 187.169 C 536.185 187.068 535.38 186.991 534.572 186.936 C 534.519 186.933 534.464 186.929 534.41 186.925 C 526.849 186.433 519.279 187.939 512.421 191.284 L 550.276 198.6 C 557.051 199.91 562.812 204.388 565.859 210.711 L 586.384 253.307 C 589.814 260.425 591.179 272.814 591.694 283.64 C 592.285 296.078 601.15 306.385 613.07 308.689 L 613.07 308.689 L 633.329 350.735 L 650.032 347.806 L 650.032 347.806 Z " fill="rgb(109,78,60)"/></g></g></g></g></svg>